<svg width="134" height="53" viewBox="0 0 134 53" fill="none" xmlns="http://www.w3.org/2000/svg">
<path d="M12.2578 8.5625H7.78125V47.75H12.2578V51.3125H3.42188V5H12.2578V8.5625Z" fill="#002978"/>
<path d="M37.2109 5H46.0703V51.3125H37.2109V47.75H41.7344V8.5625H37.2109V5Z" fill="#002978"/>
<rect x="13" y="15" width="24" height="1" fill="#FF3D3D"/>
<rect x="13" y="20" width="24" height="1" fill="#FF3D3D"/>
<rect x="13" y="25" width="24" height="1" fill="#FF3D3D"/>
<rect x="13" y="30" width="24" height="1" fill="#FF3D3D"/>
<rect x="13" y="35" width="24" height="1" fill="#FF3D3D"/>
<rect x="13" y="40" width="17" height="1" fill="#FF3D3D"/>
<path d="M30.2315 39.6175L31.4944 38.8544L32.0224 39.2886L29.999 40.3461L29.554 39.9801L30.2009 37.7906L30.7288 38.2248L30.2315 39.6175Z" fill="#A5A3A3"/>
<rect x="50.5326" y="9" width="2.40002" height="4.33456" transform="rotate(35.7525 50.5326 9)" fill="#002978"/>
<rect x="39.5326" y="24" width="2.91001" height="15.9548" transform="rotate(35.7525 39.5326 24)" fill="#002978"/>
<rect x="47.9093" y="11.0564" width="4.19693" height="16.5347" transform="rotate(35.4759 47.9093 11.0564)" fill="#FF4141"/>
<path d="M43.0869 24.9C43.7957 25.095 44.4656 24.7568 45.0964 23.8855L45.9263 22.6975C46.5161 21.8531 47.2677 21.5054 48.1811 21.6542C47.727 20.8478 47.8014 20.0131 48.4043 19.1501L49.2225 17.9789C49.8156 17.0979 49.9026 16.3526 49.4835 15.743L50.4276 15.06C50.9658 15.7139 51.2543 16.3713 51.2931 17.0321C51.3344 17.6891 51.1168 18.3627 50.6404 19.0527L49.7987 20.2576C49.2943 21.0115 49.3672 21.6155 50.0172 22.0696L49.2069 23.2296C48.5419 22.7651 47.9367 22.9232 47.3912 23.7041L46.5417 24.9202C45.5984 26.2069 44.34 26.5759 42.7666 26.0271L43.0869 24.9Z" fill="#A5A3A3"/>
<path d="M36.34 51.08C35.94 51.08 35.6 51.0533 35.32 51V49C35.5333 49.0533 35.7733 49.08 36.04 49.08C36.48 49.08 36.8067 48.9733 37.02 48.76C37.2333 48.5333 37.34 48.1933 37.34 47.74V37H39.54V47.68C39.54 48.8267 39.2733 49.68 38.74 50.24C38.22 50.8 37.42 51.08 36.34 51.08ZM44.293 51.2C43.213 51.2 42.3863 50.8933 41.813 50.28C41.2396 49.6667 40.953 48.8 40.953 47.68V40.32C40.953 39.2 41.2396 38.3333 41.813 37.72C42.3863 37.1067 43.213 36.8 44.293 36.8C45.373 36.8 46.1996 37.1067 46.773 37.72C47.3463 38.3333 47.633 39.2 47.633 40.32V47.68C47.633 48.8 47.3463 49.6667 46.773 50.28C46.1996 50.8933 45.373 51.2 44.293 51.2ZM44.293 49.2C45.053 49.2 45.433 48.74 45.433 47.82V40.18C45.433 39.26 45.053 38.8 44.293 38.8C43.533 38.8 43.153 39.26 43.153 40.18V47.82C43.153 48.74 43.533 49.2 44.293 49.2ZM49.1208 37H52.3808C53.5141 37 54.3408 37.2667 54.8608 37.8C55.3808 38.32 55.6408 39.1267 55.6408 40.22V41.08C55.6408 42.5333 55.1608 43.4533 54.2008 43.84V43.88C54.7341 44.04 55.1074 44.3667 55.3208 44.86C55.5474 45.3533 55.6608 46.0133 55.6608 46.84V49.3C55.6608 49.7 55.6741 50.0267 55.7008 50.28C55.7274 50.52 55.7941 50.76 55.9008 51H53.6608C53.5808 50.7733 53.5274 50.56 53.5008 50.36C53.4741 50.16 53.4608 49.8 53.4608 49.28V46.72C53.4608 46.08 53.3541 45.6333 53.1408 45.38C52.9408 45.1267 52.5874 45 52.0808 45H51.3208V51H49.1208V37ZM52.1208 43C52.5608 43 52.8874 42.8867 53.1008 42.66C53.3274 42.4333 53.4408 42.0533 53.4408 41.52V40.44C53.4408 39.9333 53.3474 39.5667 53.1608 39.34C52.9874 39.1133 52.7074 39 52.3208 39H51.3208V43H52.1208ZM57.1872 37H59.9472L62.0872 45.38H62.1272V37H64.0872V51H61.8272L59.1872 40.78H59.1472V51H57.1872V37ZM67.4223 37H70.4023L72.6823 51H70.4823L70.0823 48.22V48.26H67.5823L67.1823 51H65.1423L67.4223 37ZM69.8223 46.36L68.8423 39.44H68.8023L67.8423 46.36H69.8223ZM73.7497 37H75.9497V49H79.5697V51H73.7497V37ZM83.8278 37H87.1478C88.2811 37 89.1078 37.2667 89.6278 37.8C90.1478 38.32 90.4078 39.1267 90.4078 40.22V40.78C90.4078 41.5 90.2878 42.0867 90.0478 42.54C89.8211 42.9933 89.4678 43.32 88.9878 43.52V43.56C90.0811 43.9333 90.6278 44.9067 90.6278 46.48V47.68C90.6278 48.76 90.3411 49.5867 89.7678 50.16C89.2078 50.72 88.3811 51 87.2878 51H83.8278V37ZM86.8878 42.7C87.3278 42.7 87.6545 42.5867 87.8678 42.36C88.0945 42.1333 88.2078 41.7533 88.2078 41.22V40.44C88.2078 39.9333 88.1145 39.5667 87.9278 39.34C87.7545 39.1133 87.4745 39 87.0878 39H86.0278V42.7H86.8878ZM87.2878 49C87.6745 49 87.9611 48.9 88.1478 48.7C88.3345 48.4867 88.4278 48.1267 88.4278 47.62V46.4C88.4278 45.76 88.3145 45.32 88.0878 45.08C87.8745 44.8267 87.5145 44.7 87.0078 44.7H86.0278V49H87.2878ZM91.9138 37H97.9138V39H94.1138V42.7H97.1338V44.7H94.1138V49H97.9138V51H91.9138V37ZM99.1794 37H102.499C103.633 37 104.459 37.2667 104.979 37.8C105.499 38.32 105.759 39.1267 105.759 40.22V40.78C105.759 41.5 105.639 42.0867 105.399 42.54C105.173 42.9933 104.819 43.32 104.339 43.52V43.56C105.433 43.9333 105.979 44.9067 105.979 46.48V47.68C105.979 48.76 105.693 49.5867 105.119 50.16C104.559 50.72 103.733 51 102.639 51H99.1794V37ZM102.239 42.7C102.679 42.7 103.006 42.5867 103.219 42.36C103.446 42.1333 103.559 41.7533 103.559 41.22V40.44C103.559 39.9333 103.466 39.5667 103.279 39.34C103.106 39.1133 102.826 39 102.439 39H101.379V42.7H102.239ZM102.639 49C103.026 49 103.313 48.9 103.499 48.7C103.686 48.4867 103.779 48.1267 103.779 47.62V46.4C103.779 45.76 103.666 45.32 103.439 45.08C103.226 44.8267 102.866 44.7 102.359 44.7H101.379V49H102.639ZM107.265 37H113.265V39H109.465V42.7H112.485V44.7H109.465V49H113.265V51H107.265V37ZM116.251 39H113.951V37H120.751V39H118.451V51H116.251V39ZM124.918 51.2C123.838 51.2 123.011 50.8933 122.438 50.28C121.865 49.6667 121.578 48.8 121.578 47.68V40.32C121.578 39.2 121.865 38.3333 122.438 37.72C123.011 37.1067 123.838 36.8 124.918 36.8C125.998 36.8 126.825 37.1067 127.398 37.72C127.971 38.3333 128.258 39.2 128.258 40.32V47.68C128.258 48.8 127.971 49.6667 127.398 50.28C126.825 50.8933 125.998 51.2 124.918 51.2ZM124.918 49.2C125.678 49.2 126.058 48.74 126.058 47.82V40.18C126.058 39.26 125.678 38.8 124.918 38.8C124.158 38.8 123.778 39.26 123.778 40.18V47.82C123.778 48.74 124.158 49.2 124.918 49.2Z" fill="#ED4040"/>
</svg>
